<svg xmlns="http://www.w3.org/2000/svg" xmlns:xlink="http://www.w3.org/1999/xlink" viewBox="0 0 720.65 193.2">
  <defs>
    <style>
      .a {
        fill: #84878B;
      }

      .b {
        fill: url(#a);
      }
    </style>
    <radialGradient id="a" cx="96.66" cy="96.6" r="86.49" gradientUnits="userSpaceOnUse">
      <stop offset="0.47" stop-color="#ed1c24" />
      <stop offset="1" stop-color="#a01622" />
    </radialGradient>
  </defs>
  <path class="a"
    d="M63.16,193.2s10.12-.78,33.49-.78,33.5.78,33.5.78,4-4.18,9.76-10.13c-4.54-.16-22.33-.78-42.48-.78-23.37,0-44,.81-44,.81Z" />
  <path class="a"
    d="M193.25,130.12s-.78-10.13-.78-33.5.78-33.5.78-33.5-4.15-4-10.1-9.75c-.16,4.53-.8,22.32-.8,42.47,0,23.37.79,44,.79,44Z" />
  <path class="a"
    d="M130.15,0S120,.78,96.66.78,63.16,0,63.16,0s-4,4.16-9.74,10.1c0,0,22.31.81,42.46.81,23.37,0,44-.78,44-.78Z" />
  <path class="a"
    d="M0,63.09S.78,73.21.78,96.58,0,130.08,0,130.08s4.23,4,10.18,9.77c.16-4.53.73-22.34.73-42.49,0-23.37-.74-44-.74-44Z" />
  <path class="b"
    d="M111.22,103.88l71.92,36c-6.31,6.11-14.59,14.18-21.83,21.42s-15.29,15.5-21.4,21.81l-36-71.92ZM89.4,82.06l-36-72C47.31,16.42,39.24,24.7,32,31.94s-15.5,15.3-21.82,21.41l72,36Zm-7.27,21.82-71.95,36C16.49,146,24.76,154,32,161.26s15.32,15.53,21.44,21.84l36-71.95Zm29.09-14.54,71.93-36c-6.31-6.12-14.6-14.19-21.84-21.43S146,16.44,139.91,10.13L104,82.06Z" />
  <path class="a"
    d="M493.67,157.89a8,8,0,0,1-2.43-6,8.78,8.78,0,0,1,2.28-6.19,7.86,7.86,0,0,1,6.05-2.52,8.89,8.89,0,0,1,4.27,1v4.39a6.14,6.14,0,0,0-4.06-1.41,3.93,3.93,0,0,0-3.19,1.37,5.11,5.11,0,0,0-1.08,3.39,4.09,4.09,0,0,0,1.27,3.12,4.46,4.46,0,0,0,3.21,1.21,6.87,6.87,0,0,0,3.81-1.33v4.25a10.55,10.55,0,0,1-4.08,1.07A8.32,8.32,0,0,1,493.67,157.89Z" />
  <path class="a"
    d="M514.07,158a8.36,8.36,0,0,1-2.51-6.24,8.26,8.26,0,0,1,2.62-6.28A9,9,0,0,1,520.5,143a8.77,8.77,0,0,1,6.36,2.48,8,8,0,0,1,2.56,6,8.55,8.55,0,0,1-2.6,6.4,9.49,9.49,0,0,1-12.75,0Zm9.77-2.83a4.81,4.81,0,0,0,1.31-3.47,4.55,4.55,0,0,0-4.67-4.63,4.53,4.53,0,0,0-3.34,1.35,4.73,4.73,0,0,0-1.31,3.41,4.62,4.62,0,0,0,1.29,3.38,4.44,4.44,0,0,0,3.34,1.31A4.54,4.54,0,0,0,523.84,155.12Z" />
  <path class="a"
    d="M537.75,143.64h6.45a5.87,5.87,0,0,1,3.93,1.31,4.74,4.74,0,0,1,1.61,3.76,4.25,4.25,0,0,1-2.79,4.42l4.33,6.7h-5l-3.4-5.71H542v5.71h-4.23Zm5.5,7.29c1.45,0,2.18-.68,2.18-2s-.71-2-2.14-2H541.9v4.06Z" />
  <path class="a"
    d="M558.75,143.64H566a4.69,4.69,0,0,1,3.74,1.56,5.43,5.43,0,0,1,1.35,3.87,5,5,0,0,1-1.35,3.68,4.69,4.69,0,0,1-3.62,1.44H563v5.64h-4.22Zm5.62,7.44c1.66,0,2.5-.73,2.5-2.18s-.82-2.07-2.46-2.07h-1.52v4.25Z" />
  <path class="a"
    d="M580.82,158a8.91,8.91,0,0,1,.1-12.52,9,9,0,0,1,6.32-2.39,8.81,8.81,0,0,1,6.37,2.48,8,8,0,0,1,2.56,6,8.58,8.58,0,0,1-2.6,6.4,8.85,8.85,0,0,1-6.35,2.45A8.73,8.73,0,0,1,580.82,158Zm9.77-2.83a4.81,4.81,0,0,0,1.31-3.47,4.56,4.56,0,0,0-4.68-4.63,4.56,4.56,0,0,0-3.34,1.35,4.73,4.73,0,0,0-1.31,3.41,4.62,4.62,0,0,0,1.29,3.38,4.46,4.46,0,0,0,3.34,1.31A4.57,4.57,0,0,0,590.59,155.12Z" />
  <path class="a"
    d="M604.5,143.64H611a5.89,5.89,0,0,1,3.93,1.31,4.76,4.76,0,0,1,1.6,3.76c0,2.24-.92,3.71-2.78,4.42l4.33,6.7h-5l-3.41-5.71h-.84v5.71H604.5Zm5.5,7.29c1.45,0,2.17-.68,2.17-2s-.71-2-2.13-2h-1.4v4.06Z" />
  <path class="a" d="M630.14,143.66l4.84,0,6,16.19h-4.57l-1.1-3h-5.6l-1.08,3h-4.5Zm4.08,9.91-1.71-4.94-1.73,4.94Z" />
  <path class="a" d="M650.65,147.5h-3.34v-3.84h11.08v3.84h-3.34v12.35h-4.4Z" />
  <path class="a" d="M666,143.64h4.23v16.19H666Z" />
  <path class="a"
    d="M681.07,158a8.36,8.36,0,0,1-2.51-6.24,8.26,8.26,0,0,1,2.62-6.28A9,9,0,0,1,687.5,143a8.77,8.77,0,0,1,6.36,2.48,8,8,0,0,1,2.56,6,8.55,8.55,0,0,1-2.6,6.4,9.49,9.49,0,0,1-12.75,0Zm9.77-2.83a4.81,4.81,0,0,0,1.31-3.47,4.55,4.55,0,0,0-4.67-4.63,4.53,4.53,0,0,0-3.34,1.35,4.73,4.73,0,0,0-1.31,3.41,4.62,4.62,0,0,0,1.29,3.38,4.44,4.44,0,0,0,3.34,1.31A4.54,4.54,0,0,0,690.84,155.12Z" />
  <path class="a" d="M704.75,143.64H709l7.57,9.6v-9.6h4.1v16.19h-4.23L709,150.17v9.66h-4.23Z" />
  <path class="a"
    d="M217.68,109.28V63.23h9.6v46.15c0,7.25,7.82,10.83,14.79,10.83s14.69-3.68,14.69-10.93V63.23h9.6v46.15c0,13.37-13,20.34-24.29,20.34C230.48,129.72,217.68,122.75,217.68,109.28Z" />
  <path class="a"
    d="M295.56,129.06h-9.51V63.14h7.72l21.75,32,21.76-32h7.53v65.92h-9.42V82.63l-17.23,25.62h-5.37L295.56,82.63Z" />
  <path class="a"
    d="M390.11,63.23a16.46,16.46,0,0,1,16,10.83c2.64,6.5,1.79,14-4.8,18.74,7.53,3.2,10.26,10.17,10.26,16.39,0,9.89-6.49,19.87-19.11,19.87H362.71V63.23Zm-18,26.18h17.79c10.36,0,10.55-17.14.19-17.14h-18Zm0,30.42h20.34c6.4,0,9.6-5.37,9.6-10.55s-3.2-10.45-9.6-10.45H372.13Z" />
  <path class="a" d="M501.15,119.55h30.61v9.51H491.55V63.23h40.11v9.51H501.15V91.3H531v9.6H501.15Z" />
  <path class="a" d="M557.94,119.55h31v9.51H548.43V63.14h9.51Z" />
  <path class="a" d="M614.17,119.55h31v9.51h-40.5V63.14h9.52Z" />
  <path class="a"
    d="M703.63,112.39H676.89l-6.4,16.67H660.22l26.46-66.77h7l26.46,66.77H709.94Zm-23.26-9h19.78l-9.89-26Z" />
  <path class="a"
    d="M479.44,128.89l-24.67-24.66h1.79c11.26-2,17-10.84,17-20.14,0-10.46-7.16-21-21.47-21h-24V129h9.41V100.34l13,13h0L466,128.89ZM446.1,95.58h-4.42l-4.21.05V72.69h14.6c8,0,12,5.75,12,11.4s-3.95,11.49-12,11.49Z" />
</svg>
